<svg xmlns="http://www.w3.org/2000/svg" width="112.979" height="72.43" viewBox="0 0 112.979 72.43">
  <g id="Group_1209" data-name="Group 1209" transform="translate(-974.052 -249)">
    <path id="graduation-cap-solid" d="M74.69,74.7,41.215,64.418a9.587,9.587,0,0,0-5.615,0L2.124,74.7a2.825,2.825,0,0,0,0,5.471L7.96,81.967a9.457,9.457,0,0,0-2.146,5.628,3.7,3.7,0,0,0-.306,6.363L2.444,107.744a1.92,1.92,0,0,0,1.873,2.337h6.734a1.92,1.92,0,0,0,1.875-2.337L9.862,93.958a3.694,3.694,0,0,0-.216-6.3,5.661,5.661,0,0,1,2.483-4.407L35.6,90.46a9.6,9.6,0,0,0,5.615,0L74.69,80.175A2.826,2.826,0,0,0,74.69,74.7ZM42.342,94.131a13.435,13.435,0,0,1-7.871,0l-17.4-5.346-1.7,13.616c0,4.242,10.316,7.681,23.042,7.681s23.042-3.438,23.042-7.681l-1.7-13.617Z" transform="matrix(0.921, 0.391, -0.391, 0.921, 1017.059, 190.088)" fill="#ebeef7" opacity="0.652"/>
    <g id="Group_487" data-name="Group 487" transform="translate(170 46.877)">
      <path id="Union_139" data-name="Union 139" d="M5.622,10.868,4.79,8.327,2.263,7.45A1,1,0,0,1,2.3,5.55l2.508-.774.817-2.495a1,1,0,0,1,1.9,0l.832,2.542,2.526.877a1,1,0,0,1-.033,1.9L8.34,8.374l-.817,2.495a1,1,0,0,1-1.9,0Z" transform="matrix(-0.407, 0.914, -0.914, -0.407, 911.98, 239.435)" fill="#3f5aa6"/>
      <path id="Union_141" data-name="Union 141" d="M8.622,18.2,6.717,12.383.933,10.375a1,1,0,0,1,.032-1.9L6.741,6.693,8.623.95a1,1,0,0,1,1.9,0l1.9,5.819,5.785,2.008a1,1,0,0,1-.033,1.9L12.4,12.458,10.523,18.2a1,1,0,0,1-1.9,0Z" transform="matrix(-0.407, 0.914, -0.914, -0.407, 917.375, 219.943)" fill="#3f5aa6"/>
    </g>
  </g>
</svg>
