<svg xmlns="http://www.w3.org/2000/svg" width="319" height="226.804" viewBox="0 0 319 226.804">
  <g id="Group_1208" data-name="Group 1208" transform="translate(-536 -498.15)">
    <path id="Path_368" data-name="Path 368" d="M16.122,3.792A4.634,4.634,0,0,0,10,4.671a4.626,4.626,0,0,0-6.126-.88A4.376,4.376,0,0,0,2,7.222c-.112,3.1,2.639,5.59,6.837,9.4l.08.072a1.6,1.6,0,0,0,2.151-.008l.088-.08c4.2-3.807,6.941-6.294,6.837-9.4A4.373,4.373,0,0,0,16.122,3.792Z" transform="matrix(0.848, -0.53, 0.53, 0.848, 557.196, 670.702)" fill="#ebeef7"/>
    <circle id="Ellipse_162" data-name="Ellipse 162" cx="15.5" cy="15.5" r="15.5" transform="translate(546 543.877)" fill="#3f5aa6"/>
    <circle id="Ellipse_163" data-name="Ellipse 163" cx="18" cy="18" r="18" transform="translate(819 599.877)" fill="#3f5aa6"/>
    <path id="star-regular" d="M39.091,6.269l-5.351-.78L31.348.64a1.173,1.173,0,0,0-2.1,0L26.854,5.489l-5.351.78a1.173,1.173,0,0,0-.648,2l3.871,3.773-.916,5.329a1.171,1.171,0,0,0,1.7,1.234L30.3,16.089l4.787,2.516a1.172,1.172,0,0,0,1.7-1.234l-.916-5.329,3.871-3.773a1.173,1.173,0,0,0-.648-2Zm-5.109,5.157L34.85,16.5,30.3,14.1,25.744,16.5l.868-5.069L22.928,7.837l5.091-.74L30.3,2.482,32.575,7.1l5.091.74-3.685,3.589Z" transform="translate(642.5 678.89)" fill="#3f5aa6"/>
    <path id="star-regular-2" data-name="star-regular" d="M39.091,6.269l-5.351-.78L31.348.64a1.173,1.173,0,0,0-2.1,0L26.854,5.489l-5.351.78a1.173,1.173,0,0,0-.648,2l3.871,3.773-.916,5.329a1.171,1.171,0,0,0,1.7,1.234L30.3,16.089l4.787,2.516a1.172,1.172,0,0,0,1.7-1.234l-.916-5.329,3.871-3.773a1.173,1.173,0,0,0-.648-2Zm-5.109,5.157L34.85,16.5,30.3,14.1,25.744,16.5l.868-5.069L22.928,7.837l5.091-.74L30.3,2.482,32.575,7.1l5.091.74-3.685,3.589Z" transform="translate(515.5 524.89)" fill="#3f5aa6"/>
    <path id="Union_117" data-name="Union 117" d="M21.172,44.773l-4.914-15L1.345,24.6a2,2,0,0,1,.067-3.8l14.9-4.6L21.172,1.378a2,2,0,0,1,3.8,0l4.914,15L44.8,21.554a2,2,0,0,1-.066,3.8l-14.906,4.6L24.973,44.773a2,2,0,0,1-3.8,0Z" transform="translate(559.428 513.302)" fill="#fff"/>
    <path id="Union_119" data-name="Union 119" d="M9.622,19.765,7.576,13.519,1.369,11.365a1,1,0,0,1,.033-1.9L7.6,7.553,9.622,1.386a1,1,0,0,1,1.9,0l2.045,6.245,6.209,2.155a1,1,0,0,1-.033,1.9l-6.2,1.913-2.02,6.167a1,1,0,0,1-1.9,0Z" transform="translate(668.958 697.019) rotate(60)" fill="#fff"/>
    <path id="Union_121" data-name="Union 121" d="M5.622,10.868,4.79,8.327,2.263,7.45A1,1,0,0,1,2.3,5.55l2.508-.774.817-2.495a1,1,0,0,1,1.9,0l.832,2.542,2.526.877a1,1,0,0,1-.033,1.9L8.34,8.374l-.817,2.495a1,1,0,0,1-1.9,0Z" transform="translate(604.661 517.89) rotate(90)" fill="#3f5aa6"/>
    <path id="Union_123" data-name="Union 123" d="M8.622,18.2,6.717,12.383.933,10.375a1,1,0,0,1,.032-1.9L6.741,6.693,8.623.95a1,1,0,0,1,1.9,0l1.9,5.819,5.785,2.008a1,1,0,0,1-.033,1.9L12.4,12.458,10.523,18.2a1,1,0,0,1-1.9,0Z" transform="translate(601.661 497.89) rotate(90)" fill="#3f5aa6"/>
    <path id="Union_125" data-name="Union 125" d="M5.622,10.868,4.79,8.327,2.263,7.45A1,1,0,0,1,2.3,5.55l2.508-.774.817-2.495a1,1,0,0,1,1.9,0l.832,2.542,2.526.877a1,1,0,0,1-.033,1.9L8.34,8.374l-.817,2.495a1,1,0,0,1-1.9,0Z" transform="matrix(-0.407, 0.914, -0.914, -0.407, 771.981, 653.312)" fill="#3f5aa6"/>
    <path id="Union_127" data-name="Union 127" d="M8.622,18.2,6.717,12.383.933,10.375a1,1,0,0,1,.032-1.9L6.741,6.693,8.623.95a1,1,0,0,1,1.9,0l1.9,5.819,5.785,2.008a1,1,0,0,1-.033,1.9L12.4,12.458,10.523,18.2a1,1,0,0,1-1.9,0Z" transform="matrix(-0.407, 0.914, -0.914, -0.407, 777.375, 633.82)" fill="#3f5aa6"/>
    <path id="cog-solid" d="M38.106,20.871l-1.769-1.021a8,8,0,0,0,0-2.915l1.769-1.021a.5.5,0,0,0,.228-.581A10.341,10.341,0,0,0,36.064,11.4a.5.5,0,0,0-.614-.1L33.68,12.33a7.836,7.836,0,0,0-2.524-1.457V8.834a.5.5,0,0,0-.39-.486,10.438,10.438,0,0,0-4.534,0,.5.5,0,0,0-.39.486v2.043a8.083,8.083,0,0,0-2.524,1.457l-1.765-1.021a.493.493,0,0,0-.614.1,10.279,10.279,0,0,0-2.271,3.928.5.5,0,0,0,.228.581l1.769,1.021a8,8,0,0,0,0,2.915L18.9,20.875a.5.5,0,0,0-.228.581,10.341,10.341,0,0,0,2.271,3.928.5.5,0,0,0,.614.1l1.769-1.021a7.836,7.836,0,0,0,2.524,1.457v2.043a.5.5,0,0,0,.39.486,10.438,10.438,0,0,0,4.534,0,.5.5,0,0,0,.39-.486V25.915a8.083,8.083,0,0,0,2.524-1.457l1.769,1.021a.493.493,0,0,0,.614-.1,10.279,10.279,0,0,0,2.271-3.928A.513.513,0,0,0,38.106,20.871Zm-9.608.843a3.322,3.322,0,1,1,3.322-3.322A3.326,3.326,0,0,1,28.5,21.713Z" transform="translate(542.356 609.777)" fill="#3f5aa6"/>
    <path id="cog-solid-2" data-name="cog-solid" d="M38.106,20.871l-1.769-1.021a8,8,0,0,0,0-2.915l1.769-1.021a.5.5,0,0,0,.228-.581A10.341,10.341,0,0,0,36.064,11.4a.5.5,0,0,0-.614-.1L33.68,12.33a7.836,7.836,0,0,0-2.524-1.457V8.834a.5.5,0,0,0-.39-.486,10.438,10.438,0,0,0-4.534,0,.5.5,0,0,0-.39.486v2.043a8.083,8.083,0,0,0-2.524,1.457l-1.765-1.021a.493.493,0,0,0-.614.1,10.279,10.279,0,0,0-2.271,3.928.5.5,0,0,0,.228.581l1.769,1.021a8,8,0,0,0,0,2.915L18.9,20.875a.5.5,0,0,0-.228.581,10.341,10.341,0,0,0,2.271,3.928.5.5,0,0,0,.614.1l1.769-1.021a7.836,7.836,0,0,0,2.524,1.457v2.043a.5.5,0,0,0,.39.486,10.438,10.438,0,0,0,4.534,0,.5.5,0,0,0,.39-.486V25.915a8.083,8.083,0,0,0,2.524-1.457l1.769,1.021a.493.493,0,0,0,.614-.1,10.279,10.279,0,0,0,2.271-3.928A.513.513,0,0,0,38.106,20.871Zm-9.608.843a3.322,3.322,0,1,1,3.322-3.322A3.326,3.326,0,0,1,28.5,21.713Z" transform="translate(774.356 536.777)" fill="#ebeef7" opacity="0.273"/>
    <g id="viaje" transform="translate(-17077 -12358.123)">
      <path id="Union_145" data-name="Union 145" d="M80.935,160.277a6.847,6.847,0,0,1-3.7-2.221,9.671,9.671,0,0,1-1.631-3.175c-.714-2.118-3.418-20.022-3.521-20.7-.35.059-.67.1-.954.134a3.167,3.167,0,0,1-.327.016h0a9.629,9.629,0,0,1-3.9-1.173,42.294,42.294,0,0,1-5.84-3.6A130.684,130.684,0,0,1,47.713,118.3a167.376,167.376,0,0,1-12.355-12.957c-3.352-3.973-5.524-7.13-6.117-8.888a11.607,11.607,0,0,1,.151-5.3c-4.271-.576-17.653-2.408-19.474-2.986a9.65,9.65,0,0,1-3.2-1.575,6.854,6.854,0,0,1-2.286-3.661,10.346,10.346,0,0,1-.41-2.573c-.036-2.1.787-3.776,2.047-6.092,1.818-3.341,11.943-19.843,16.014-25.085C23,48,25.213,46.97,28.664,46.113a80.185,80.185,0,0,1,10.564-1.706c6.6-.694,12.893-.865,14.088-.892h.018a97.7,97.7,0,0,1,10.56-12.136A97.494,97.494,0,0,1,81.918,18a134.794,134.794,0,0,1,20.808-9.851C116.522,2.972,130.854,0,142.048,0a40.288,40.288,0,0,1,10.387,1.163A12.825,12.825,0,0,1,158.8,4.617c1.277,1.443,2.228,5.609,2.545,11.146a112.289,112.289,0,0,1-1.162,21.464,137.6,137.6,0,0,1-6.433,26.313A105.242,105.242,0,0,1,140.61,89.4a101.128,101.128,0,0,1-21.113,21.38c-.009,1.355-.078,7.54-.646,14.03a80,80,0,0,1-1.522,10.592c-.8,3.467-1.79,5.7-2.956,6.638-5.171,4.162-21.494,14.574-24.8,16.449-2.293,1.3-3.954,2.153-6.056,2.153A10.3,10.3,0,0,1,80.935,160.277Zm28.494-42.515c-2.9,1.824-5.678,3.43-8.239,4.819a142.478,142.478,0,0,1-20.568,9.2l3.447,18.841c.241-.147,24.286-14.823,24.671-16.446s.829-16.335.833-16.483Zm-70.3-33.709c-1.639,4.842-2.215,8.474-1.625,10.229.665,1.974,3.171,5.192,5.156,7.545a137.537,137.537,0,0,0,10.147,10.642A107.545,107.545,0,0,0,63.8,121.73c3.831,2.734,6.6,4.064,8.472,4.064a3.619,3.619,0,0,0,.362-.018c1.858-.194,5.611-1.406,10.038-3.24q.548-.227,1.157-.487L41.112,78.872C40.353,80.675,39.687,82.415,39.133,84.054Zm73.312-70.476a111.566,111.566,0,0,0-32.887,15.77,105.266,105.266,0,0,0-18.93,17.886A132.187,132.187,0,0,0,47.005,66.954Q46.23,68.327,45.5,69.7l47.6,47.959c2.073-1.07,4.312-2.284,6.684-3.654a142.148,142.148,0,0,0,18.771-12.829,86.657,86.657,0,0,0,15.961-16.591,89.324,89.324,0,0,0,10.961-21.563,129.866,129.866,0,0,0,5.735-22.254,125.879,125.879,0,0,0,1.8-18.5c.083-4.833-.248-8.72-.887-10.4-.394-1.036-1.607-1.828-3.605-2.353a30.334,30.334,0,0,0-7.42-.741C133.033,8.782,122.587,10.53,112.445,13.577Zm-82.4,41.1c-1.616.413-15.87,24.71-16.013,24.953L31.9,82.579a137.094,137.094,0,0,1,6.38-14.524c2.488-4.934,5.27-9.858,8.186-14.5C45.574,53.6,31.605,54.279,30.04,54.679Zm1.849,104.316a4.5,4.5,0,0,1,0-6.364l15.556-15.556a4.5,4.5,0,1,1,6.364,6.364L38.253,158.995a4.5,4.5,0,0,1-6.364,0ZM5.868,157.016a4.5,4.5,0,0,1,0-6.364l27.577-27.577a4.5,4.5,0,0,1,6.364,6.364L12.232,157.016a4.5,4.5,0,0,1-6.364,0ZM3.889,131a4.5,4.5,0,0,1,0-6.364l15.557-15.557a4.5,4.5,0,0,1,6.364,6.364L10.253,131a4.5,4.5,0,0,1-6.364,0Zm99.155-58.415A23.077,23.077,0,1,1,112,74.388,22.936,22.936,0,0,1,103.044,72.581Zm-1.654-31.8A15,15,0,1,0,112,36.388,14.9,14.9,0,0,0,101.39,40.781Z" transform="translate(17682.504 12875.112)" fill="#55d7ff"/>
      <path id="Union_149" data-name="Union 149" d="M80.935,160.277a6.847,6.847,0,0,1-3.7-2.221,9.671,9.671,0,0,1-1.631-3.175c-.714-2.118-3.418-20.022-3.521-20.7-.35.059-.67.1-.954.134a3.167,3.167,0,0,1-.327.016h0a9.629,9.629,0,0,1-3.9-1.173,42.294,42.294,0,0,1-5.84-3.6A130.684,130.684,0,0,1,47.713,118.3a167.376,167.376,0,0,1-12.355-12.957c-3.352-3.973-5.524-7.13-6.117-8.888a11.607,11.607,0,0,1,.151-5.3c-4.271-.576-17.653-2.408-19.474-2.986a9.65,9.65,0,0,1-3.2-1.575,6.854,6.854,0,0,1-2.286-3.661,10.346,10.346,0,0,1-.41-2.573c-.036-2.1.787-3.776,2.047-6.092,1.818-3.341,11.943-19.843,16.014-25.085C23,48,25.213,46.97,28.664,46.113a80.185,80.185,0,0,1,10.564-1.706c6.6-.694,12.893-.865,14.088-.892h.018a97.7,97.7,0,0,1,10.56-12.136A97.494,97.494,0,0,1,81.918,18a134.794,134.794,0,0,1,20.808-9.851C116.522,2.972,130.854,0,142.048,0a40.288,40.288,0,0,1,10.387,1.163A12.825,12.825,0,0,1,158.8,4.617c1.277,1.443,2.228,5.609,2.545,11.146a112.289,112.289,0,0,1-1.162,21.464,137.6,137.6,0,0,1-6.433,26.313A105.242,105.242,0,0,1,140.61,89.4a101.128,101.128,0,0,1-21.113,21.38c-.009,1.355-.078,7.54-.646,14.03a80,80,0,0,1-1.522,10.592c-.8,3.467-1.79,5.7-2.956,6.638-5.171,4.162-21.494,14.574-24.8,16.449-2.293,1.3-3.954,2.153-6.056,2.153A10.3,10.3,0,0,1,80.935,160.277Zm28.494-42.515c-2.9,1.824-5.678,3.43-8.239,4.819a142.478,142.478,0,0,1-20.568,9.2l3.447,18.841c.241-.147,24.286-14.823,24.671-16.446s.829-16.335.833-16.483Zm-70.3-33.709c-1.639,4.842-2.215,8.474-1.625,10.229.665,1.974,3.171,5.192,5.156,7.545a137.537,137.537,0,0,0,10.147,10.642A107.545,107.545,0,0,0,63.8,121.73c3.831,2.734,6.6,4.064,8.472,4.064a3.619,3.619,0,0,0,.362-.018c1.858-.194,5.611-1.406,10.038-3.24q.548-.227,1.157-.487L41.112,78.872C40.353,80.675,39.687,82.415,39.133,84.054Zm73.312-70.476a111.566,111.566,0,0,0-32.887,15.77,105.266,105.266,0,0,0-18.93,17.886A132.187,132.187,0,0,0,47.005,66.954Q46.23,68.327,45.5,69.7l47.6,47.959c2.073-1.07,4.312-2.284,6.684-3.654a142.148,142.148,0,0,0,18.771-12.829,86.657,86.657,0,0,0,15.961-16.591,89.324,89.324,0,0,0,10.961-21.563,129.866,129.866,0,0,0,5.735-22.254,125.879,125.879,0,0,0,1.8-18.5c.083-4.833-.248-8.72-.887-10.4-.394-1.036-1.607-1.828-3.605-2.353a30.334,30.334,0,0,0-7.42-.741C133.033,8.782,122.587,10.53,112.445,13.577Zm-82.4,41.1c-1.616.413-15.87,24.71-16.013,24.953L31.9,82.579a137.094,137.094,0,0,1,6.38-14.524c2.488-4.934,5.27-9.858,8.186-14.5C45.574,53.6,31.605,54.279,30.04,54.679Zm1.849,104.316a4.5,4.5,0,0,1,0-6.364l15.556-15.556a4.5,4.5,0,1,1,6.364,6.364L38.253,158.995a4.5,4.5,0,0,1-6.364,0ZM5.868,157.016a4.5,4.5,0,0,1,0-6.364l27.577-27.577a4.5,4.5,0,0,1,6.364,6.364L12.232,157.016a4.5,4.5,0,0,1-6.364,0ZM3.889,131a4.5,4.5,0,0,1,0-6.364l15.557-15.557a4.5,4.5,0,0,1,6.364,6.364L10.253,131a4.5,4.5,0,0,1-6.364,0Zm99.155-58.415A23.077,23.077,0,1,1,112,74.388,22.936,22.936,0,0,1,103.044,72.581Zm-1.654-31.8A15,15,0,1,0,112,36.388,14.9,14.9,0,0,0,101.39,40.781Z" transform="translate(17682.504 12873.112)" fill="#ebeef7"/>
    </g>
  </g>
</svg>
